# xmcd
#
# Track frame offsets:
#	150
#	22856
#	42950
#	69242
#	88300
#	118853
#	134984
#	153148
#	168400
#	184283
#	206826
#	223224
#	239803
#	259477
#
# Disc length: 3736 seconds
#
# Revision: 1
# Processed by: cddbd v1.4b41PL2 Copyright (c) Steve Scherf et al.
# Submitted via: audiograbber 1.80
#
DISCID=dd0e960e
DTITLE=Sarantis - Cafe Mystique
DYEAR=1900
DGENRE=
TTITLE0=syllabic antiphons
TTITLE1=mystical monastery
TTITLE2=Sounds of Silence
TTITLE3=Hymne of the monks
TTITLE4=Ancient Abbay
TTITLE5=Simeons Dream
TTITLE6=For the Father
TTITLE7=Incense
TTITLE8=Touch the Heavenly Light
TTITLE9=Viterbo
TTITLE10=Benedictus Sanctus
TTITLE11=Cloister Secrets
TTITLE12=Relic
TTITLE13=Cantilena Romana
EXTD=
EXTT0=
EXTT1=
EXTT2=
EXTT3=
EXTT4=
EXTT5=
EXTT6=
EXTT7=
EXTT8=
EXTT9=
EXTT10=
EXTT11=
EXTT12=
EXTT13=
PLAYORDER=
